<svg width="1440" height="152" viewBox="0 0 1440 152" fill="none" xmlns="http://www.w3.org/2000/svg">
<g clip-path="url(#clip0_243_2)">
<path d="M261.526 97.7465C222.026 106.088 175.526 39.8779 117.026 106.088C71.5264 182.725 -25.4736 115.814 -25.4736 70.8975C-71.9738 -4.69666 63.865 -6 121.026 -6C178.188 -6 301.026 89.4051 261.526 97.7465Z" fill="#F6DABF"/>
<path d="M383.026 93.3907C383.026 127.366 358.526 44.3093 297.526 109.216C233.026 194.455 244.026 88.6231 183.026 76.893C183.026 42.9175 134.775 10.6829 195.527 10.6829C256.278 10.6829 383.026 59.4152 383.026 93.3907Z" fill="#F6DABF"/>
<path d="M872.885 79.4997C872.885 102.678 852.027 77.675 823.527 108.955C799.777 135.022 785.726 83.931 749.226 89.4051C666.226 85.7557 690.067 17.9816 734.526 17.9816C1031.03 9.37952 872.885 56.3215 872.885 79.4997Z" fill="#F6DABF"/>
<path d="M745.026 23.7163C745.026 53.9488 620.526 46.3946 557.026 111.562C508.961 160.889 494.527 87.9453 453.527 88.4667C453.527 58.2343 286.731 13.5502 340.026 13.5502C393.322 13.5502 826.526 -33.1096 745.026 23.7163Z" fill="#F6DABF"/>
<path d="M1456.36 26.4984C1456.36 56.7309 1485.53 43.2666 1422.03 108.434C1373.96 157.761 1324.53 83.931 1283.53 84.4524C1283.53 54.22 1214.56 25.7164 1267.86 25.7164C1321.16 25.7164 1537.86 -30.3275 1456.36 26.4984Z" fill="#F6DABF"/>
<path d="M1017.36 32.7545C1017.36 62.9869 1018.36 52.5654 954.86 117.733C906.795 167.06 895.526 90.9691 854.526 91.4905C854.526 61.2581 775.565 31.9725 828.86 31.9725C882.156 31.9725 1098.86 -24.0715 1017.36 32.7545Z" fill="#F6DABF"/>
<path d="M484.026 74.5469C484.026 103.916 433.527 71.4189 412.527 107.391C389.027 130.591 387.027 99.0499 351.527 84.4524C351.527 55.0838 221.53 15.6356 269.027 15.6356C316.523 15.6356 484.026 45.1783 484.026 74.5469Z" fill="#F6DABF"/>
<path d="M1303.33 70.6369C1303.33 100.006 1252.83 67.5089 1231.83 103.481C1208.33 126.681 1197.03 85.7557 1165.53 84.1917C1092.03 98.2679 1041.03 1.29876 1245.53 13.2896C1293.02 13.2896 1303.33 41.2683 1303.33 70.6369Z" fill="#F6DABF"/>
<path d="M778 57.5C778 89.7479 745.027 80.021 696.026 130.07C652.027 184.289 634 68.9711 586.5 88C460.5 75.7485 622.939 32.3185 674.026 32.3185C725.112 32.3185 778 25.2521 778 57.5Z" fill="#F6DABF"/>
<path d="M961.527 109.477C999.527 77.675 1025.03 45.0912 1060.53 126.42C1105.03 182.464 1117.53 109.477 1163.53 84.713C1232.03 56.8214 1144.19 -0.00460815 1087.03 -0.00460815C1029.87 -0.00460815 861.027 92.0118 961.527 109.477Z" fill="#F6DABF"/>
<rect y="-1" width="1440" height="57" fill="#F6DABF"/>
</g>
<defs>
<clipPath id="clip0_243_2">
<rect width="1440" height="152" fill="white"/>
</clipPath>
</defs>
</svg>
